<?xml version="1.0" encoding="utf-8"?>
<!-- Generator: Adobe Illustrator 25.2.3, SVG Export Plug-In . SVG Version: 6.00 Build 0)  -->
<svg version="1.1" xmlns="http://www.w3.org/2000/svg" xmlns:xlink="http://www.w3.org/1999/xlink" x="0px" y="0px"
	 viewBox="0 0 64 64" enable-background="new 0 0 64 64" xml:space="preserve">
<g id="_x30_1">
</g>
<g id="_x30_2">
</g>
<g id="_x30_3">
	<path fill="rgb(52, 131, 250)" d="M61.769,23.786L51.043,5.711c-0.054-0.091-0.151-0.195-0.266-0.303l-0.01-0.035l-0.023,0.006
		c-1.36-1.246-6.403-3.529-10.604-5.306c-0.266-0.113-0.574-0.093-0.823,0.054c-0.249,0.147-0.415,0.407-0.445,0.695
		c0,0,0,0,0,0.001c-0.072,0.724-0.486,3.218-2.759,4.902c-2.424,1.795-5.807,1.794-8.229,0c-2.274-1.685-2.688-4.178-2.76-4.903
		c-0.029-0.288-0.195-0.547-0.443-0.694c-0.248-0.147-0.556-0.168-0.823-0.055C19.254,2.02,13.624,4.58,12.957,5.71L2.231,23.786
		c-0.186,0.314-0.107,0.717,0.184,0.938l10.428,7.902c0.314,0.238,0.761,0.178,1.001-0.134l2.407-3.125l-1.611,30.62
		c-0.054,1.022,0.637,1.927,1.643,2.152C18.869,62.716,25.497,64,33.251,64c4.666,0,9.741-0.465,14.586-1.829
		c0.949-0.267,1.575-1.14,1.524-2.123l-1.614-30.682l2.408,3.125c0.239,0.311,0.688,0.373,1.001,0.134l10.428-7.902
		C61.876,24.503,61.955,24.099,61.769,23.786z M27.032,6.877c2.925,2.167,7.012,2.166,9.936,0c2.235-1.656,2.982-3.953,3.23-5.222
		c0.223,0.095,0.44,0.189,0.659,0.284c-0.325,1.896-1.872,7.448-8.852,7.544c-6.988-0.096-8.536-5.648-8.861-7.544
		c0.218-0.094,0.435-0.188,0.658-0.283C24.049,2.924,24.796,5.221,27.032,6.877z M13.141,31.052l-9.35-7.085l9.738-16.412
		c1.224,2.599,3.912,9.609,2.866,19.274L13.141,31.052z M47.929,60.124c0.017,0.308-0.181,0.582-0.481,0.666
		c-12.571,3.54-26.793,0.855-30.852-0.052c-0.32-0.071-0.54-0.356-0.524-0.676l1.731-32.904c1.266-11.256-2.287-18.964-3.339-20.954
		c0.964-0.713,4.043-2.24,8.013-3.975c0.445,2.195,2.294,7.873,9.526,7.972c7.225-0.099,9.073-5.777,9.517-7.972
		c3.935,1.72,6.997,3.235,7.985,3.95c-1.042,2.093-4.528,10.066-3.311,20.977L47.929,60.124z M50.858,31.052l-3.253-4.223
		c-1.019-9.496,1.619-16.607,2.847-19.303l9.756,16.441L50.858,31.052z"/>
</g>
<g id="_x30_4">
</g>
<g id="_x30_5">
</g>
<g id="_x30_6">
</g>
<g id="_x30_7">
</g>
<g id="_x30_8">
</g>
<g id="_x30_9">
</g>
<g id="_x31_0">
</g>
<g id="_x31_1">
</g>
<g id="_x31_2">
</g>
<g id="_x31_3">
</g>
<g id="_x31_4">
</g>
<g id="_x31_5">
</g>
<g id="_x31_6">
</g>
<g id="_x31_7">
</g>
<g id="_x31_8">
</g>
<g id="_x31_9">
</g>
<g id="_x32_0">
</g>
</svg>
