<svg id="Layer_1" data-name="Layer 1" xmlns="http://www.w3.org/2000/svg" viewBox="0 0 64 64">
  <title>oven</title>
  <circle cx="50" cy="9" r="3" fill="rgb(52, 131, 250)"/>
  <circle cx="50" cy="9" r="1" fill="rgb(52, 131, 250)"/>
  <circle cx="40" cy="9" r="3" fill="rgb(52, 131, 250)"/>
  <circle cx="40" cy="9" r="1" fill="rgb(52, 131, 250)"/>
  <path d="M22,12H16a3,3,0,0,1,0-6h6a3,3,0,0,1,0,6ZM16,8a1,1,0,0,0,0,2h6a1,1,0,0,0,0-2Z" fill="rgb(52, 131, 250)"/>
  <path d="M60,15H4a1,1,0,0,1-1-1V6A3,3,0,0,1,6,3H58a3,3,0,0,1,3,3v8A1,1,0,0,1,60,15ZM5,13H59V6a1,1,0,0,0-1-1H6A1,1,0,0,0,5,6Z" fill="rgb(52, 131, 250)"/>
  <path d="M58,61H6a3,3,0,0,1-3-3V14a1,1,0,0,1,1-1H60a1,1,0,0,1,1,1V58A3,3,0,0,1,58,61ZM5,15V58a1,1,0,0,0,1,1H58a1,1,0,0,0,1-1V15Z" fill="rgb(52, 131, 250)"/>
  <path d="M54,57H10a3,3,0,0,1-3-3V20a3,3,0,0,1,3-3H54a3,3,0,0,1,3,3V54A3,3,0,0,1,54,57ZM10,19a1,1,0,0,0-1,1V54a1,1,0,0,0,1,1H54a1,1,0,0,0,1-1V20a1,1,0,0,0-1-1Z" fill="rgb(52, 131, 250)" />
    <style>
    #Layer_1:hover {
      fill: #ff0000;
    }
  </style>
</svg>

