<?xml version="1.0" encoding="UTF-8" standalone="no"?> 
<svg xmlns="http://www.w3.org/2000/svg" viewBox="0 0 48 48">
<title>Couch</title>
<g id="Couch">
<path fill="rgb(52, 131, 250)" d="M40,16.025V11a7.008,7.008,0,0,0-7-7H15a7.008,7.008,0,0,0-7,7v5.025a5.5,5.5,0,0,0-3,9.716V35a5,5,0,0,0,3,4.576V42a2,2,0,0,0,2,2h2a2,2,0,0,0,2-2V40H34v2a2,2,0,0,0,2,2h2a2,2,0,0,0,2-2V39.576A5,5,0,0,0,43,35V25.741a5.5,5.5,0,0,0-3-9.716ZM15,6H33a5.006,5.006,0,0,1,5,5v5.213A5.506,5.506,0,0,0,34,21.5v6.309A64.945,64.945,0,0,0,24,27a64.945,64.945,0,0,0-10,.809V21.5a5.506,5.506,0,0,0-4-5.287V11A5.006,5.006,0,0,1,15,6ZM12,42H10V40h2Zm26,0H36V40h2Zm3.443-17.59a1,1,0,0,0-.443.83V35a3,3,0,0,1-3,3H10a3,3,0,0,1-3-3V25.24a1,1,0,0,0-.443-.83A3.5,3.5,0,1,1,12,21.5V29a1,1,0,0,0,.366.773.991.991,0,0,0,.83.207A62.407,62.407,0,0,1,24,29a62.407,62.407,0,0,1,10.8.98A1,1,0,0,0,36,29V21.5a3.5,3.5,0,1,1,5.443,2.91Z"/></g>
</svg>